<svg xmlns="http://www.w3.org/2000/svg" width="33" height="43" viewBox="0 0 33 43">
  <defs>
    <linearGradient id="sale-ok-copy-2-a" x1="50%" x2="50%" y1="96.084%" y2="3.432%">
      <stop offset="0%" stop-color="#FD023C"/>
      <stop offset="100%" stop-color="#DE055B"/>
    </linearGradient>
  </defs>
  <g fill="none" fill-rule="evenodd" transform="translate(-1)">
    <g transform="translate(1)">
      <path fill="#5D0019" d="M6.38286655,3.75231805 L33,1 L33,35.1577824 C33,36.4865713 32.1258806,37.6570446 30.8517762,38.0343215 L14.5327761,42.8665643 C13.8314797,43.0742262 13.0784776,43.0185409 12.4153566,42.7099787 L2.73435669,38.2052352 C1.67649784,37.7129944 1,36.6520577 1,35.4852817 L1,9.72049586 C1,6.64572337 3.32440172,4.06857555 6.38286655,3.75231805 Z" opacity=".442"/>
      <path fill="url(#sale-ok-copy-2-a)" d="M5.38286655,2.75231805 L32,0 L32,34.1577824 C32,35.4865713 31.1258806,36.6570446 29.8517762,37.0343215 L13.5327761,41.8665643 C12.8314797,42.0742262 12.0784776,42.0185409 11.4153566,41.7099787 L1.73435669,37.2052352 C0.676497843,36.7129944 -1.18937878e-15,35.6520577 -1.33226763e-15,34.4852817 L8.8817842e-16,8.72049586 C5.11627391e-16,5.64572337 2.32440172,3.06857555 5.38286655,2.75231805 Z"/>
      <path fill="#FFF" d="M7.01757812,10.0117188 C6.72753761,10.3590512 6.31754822,10.6284984 5.78759766,10.8200684 C5.25764709,11.0116383 4.67041338,11.1074219 4.02587891,11.1074219 C3.34911771,11.1074219 2.75561779,10.9597183 2.24536133,10.6643066 C1.73510487,10.368895 1.3412286,9.94010698 1.0637207,9.37792969 C0.786212805,8.8157524 0.643880244,8.15511447 0.63671875,7.39599609 L0.63671875,6.86425781 C0.63671875,6.08365495 0.768309231,5.40779908 1.03149414,4.83666992 C1.29467905,4.26554076 1.67423255,3.82869617 2.17016602,3.52612305 C2.66609948,3.22354992 3.24706698,3.07226562 3.91308594,3.07226562 C4.84049943,3.07226562 5.56558983,3.29337344 6.08837891,3.7355957 C6.61116798,4.17781797 6.92089795,4.8214476 7.01757812,5.66650391 L5.44921875,5.66650391 C5.37760381,5.21891052 5.21915813,4.89127708 4.97387695,4.68359375 C4.72859578,4.47591042 4.39111543,4.37207031 3.96142578,4.37207031 C3.41357148,4.37207031 2.9964207,4.57796018 2.70996094,4.98974609 C2.42350117,5.40153201 2.27848309,6.01383057 2.27490234,6.82666016 L2.27490234,7.32617188 C2.27490234,8.14616295 2.4306625,8.76562291 2.7421875,9.18457031 C3.0537125,9.60351772 3.5102509,9.81298828 4.11181641,9.81298828 C4.71696266,9.81298828 5.14843621,9.68408332 5.40625,9.42626953 L5.40625,8.078125 L3.93994141,8.078125 L3.93994141,6.89111328 L7.01757812,6.89111328 L7.01757812,10.0117188 Z M10.0361328,11 L8.42480469,11 L8.42480469,3.1796875 L10.0361328,3.1796875 L10.0361328,11 Z M15.9443359,9.38867188 L13.1191406,9.38867188 L12.5820312,11 L10.8686523,11 L13.7797852,3.1796875 L15.2729492,3.1796875 L18.2001953,11 L16.4868164,11 L15.9443359,9.38867188 Z M13.5541992,8.08349609 L15.5092773,8.08349609 L14.5263672,5.15625 L13.5541992,8.08349609 Z M13.9624023,2.54052734 L13.8818359,1.82080078 C14.1432305,1.80647779 14.332112,1.77335638 14.4484863,1.72143555 C14.5648606,1.66951471 14.6230469,1.58626359 14.6230469,1.47167969 C14.6230469,1.22460814 14.3688176,1.10107422 13.8603516,1.10107422 L13.8979492,0.375976562 C14.5711297,0.375976562 15.078693,0.46907459 15.4206543,0.655273438 C15.7626156,0.841472285 15.9335938,1.09749186 15.9335938,1.42333984 C15.9335938,1.63460392 15.8601895,1.80737238 15.7133789,1.94165039 C15.5665683,2.07592841 15.3714205,2.16096987 15.1279297,2.19677734 L15.1279297,2.54052734 L13.9624023,2.54052734 Z M21.0361328,3.1796875 L23.0449219,8.8515625 L25.0429688,3.1796875 L27.1591797,3.1796875 L27.1591797,11 L25.5424805,11 L25.5424805,8.86230469 L25.7036133,5.17236328 L23.5927734,11 L22.4863281,11 L20.3808594,5.17773438 L20.5419922,8.86230469 L20.5419922,11 L18.9306641,11 L18.9306641,3.1796875 L21.0361328,3.1796875 Z" transform="translate(2 4)"/>
      <path stroke="#FFF" stroke-dasharray="2" stroke-linecap="square" d="M0.5,1.5 L22.5,1.5" transform="translate(5 18)"/>
    </g>
  </g>
</svg>
